<svg xmlns="http://www.w3.org/2000/svg" xmlns:xlink="http://www.w3.org/1999/xlink" id="Layer_1" x="0px" y="0px" width="638.1px" height="330.6px" viewBox="0 0 638.1 330.6" style="enable-background:new 0 0 638.1 330.6;" xml:space="preserve"><style type="text/css">	.st0{fill:#FFFFFF;}</style><g id="_x23_2abad4ff">	<path class="st0" d="M112.3,151.2C162.5,100.8,212.8,50.4,263.1,0c-7.9,14.3-16.4,28.3-24.5,42.4c-26.8,45.9-53.5,91.8-80.3,137.7  c-15.1,25.5-29.8,51.2-44.7,76.9c-16.9-24-33.3-48.3-50.1-72.4c-21-30.6-42.2-61.1-63.1-91.8C21.4,93,42.2,92.8,63.1,93  c13.3,18.6,26.1,37.7,39.2,56.5c1.8,2.5,3.2,5.3,5.7,7.2C108,154,110.6,152.9,112.3,151.2z"></path></g><g id="_x23_01434fff">	<path class="st0" d="M280.7,73.6C297.9,62.6,319,60,339,60.9c19.1,0.9,38.9,6.6,53.2,19.8c13.3,12,20.2,30,19.8,47.8  c-15-0.1-29.9-0.1-44.9,0c0.3-9-3.7-18.3-11.3-23.4c-8.6-6-19.7-6.9-29.9-5.9c-7.5,0.9-15.4,3.2-20.6,9.1c-4.4,4.8-5.3,12-3.6,18.2  c2.1,6.3,7.9,10.4,13.6,13.2c15.4,7.5,32.8,9.2,48.8,15c15.7,5.3,31.6,12.8,42,26.3c10.9,14.4,12.1,34.2,7.1,51.1  c-4.6,15.6-17,28.1-31.8,34.6c-17.9,7.9-38,9.5-57.2,7.8c-16.6-1.5-33.4-6.5-46.7-16.9c-12.4-9.6-20.7-24.1-22.9-39.6  c-0.3-4.1-0.2-8.2-0.3-12.4c15,0,30.1,0,45.1,0c-0.3,8.4,3.2,17,9.7,22.4c8.7,7.4,20.8,9.2,31.8,8.5c8.2-0.6,16.9-2.6,22.8-8.8  c5.1-5.3,6.1-13.6,3.6-20.3c-2.6-6.5-8.7-10.8-14.8-13.7c-14.7-7.1-31.2-8.3-46.5-13.6c-15.7-5.2-31.6-13-41.4-26.7  c-9.3-12.8-10.9-29.7-8-44.9C259.3,94.1,268.4,81.3,280.7,73.6z"></path>	<path class="st0" d="M511.4,62.3c18.5-2.9,37.8-1.9,55.6,3.8c18.8,5.9,35.9,17.1,48.3,32.4c10.4,12.6,17.6,27.6,21.2,43.5  c-16,0-32.1,0.1-48.1-0.1c-4.9-14.1-16-25.8-29.7-31.6c-16-6.8-34.8-7.1-50.8-0.3c-11.8,4.9-21.7,14.1-27.6,25.4  c-7.7,14.5-9.3,31.7-6.2,47.7c2.8,14.5,10.8,28.1,22.9,36.7c15.1,10.9,35.2,13.2,52.9,8.6c18.3-4.6,33.7-18.6,40-36.4  c16,0,32,0,48.1,0c-3.6,17.8-11.8,34.7-23.9,48.2c-13,14.6-30.4,24.9-49.1,30.2c-20.5,5.7-42.6,6.1-63.3,0.9  c-16-4-31.1-11.8-43.4-22.9c-15-13.5-25.3-31.8-29.9-51.4c-4.3-18-4.5-36.9-0.8-55c4-19.4,13.3-37.9,27.5-51.8  C470.3,75.1,490.5,65.6,511.4,62.3z"></path>	<path class="st0" d="M181.4,168.3c21-35.9,42-71.8,62.8-107.8c-0.1,71.3,0,142.6,0,213.9c-20.9,0.1-41.9,0-62.8,0  C181.4,239.1,181.4,203.7,181.4,168.3z"></path>	<path class="st0" d="M0.4,274.4c0-60.5,0-121,0-181.5c20.9,30.7,42.1,61.2,63.1,91.8c-0.2,29.9,0,59.8-0.1,89.7  C42.5,274.4,21.5,274.4,0.4,274.4z"></path>	<path class="st0" d="M29.1,311.9c1.2-9.7,18.5-8.9,18.3,1.2c-0.7,0-2.2-0.1-2.9-0.2c-0.6-6.2-12.4-6.7-11.8,0  c3.7,5.1,13.7,2.6,15,10c0.6,10.8-19.1,10-18.5-0.5c2.9-0.7,3.3,2,4.7,3.7c2.5,1.8,6.1,2.1,8.8,0.6c2.3-0.9,2.4-4.6,0.1-5.6  c-3.3-2.1-7.6-1.9-10.8-4.2C30.2,315.8,29.9,313.6,29.1,311.9z"></path>	<path class="st0" d="M57.4,307.3c2.5-2.5,6.4-2.3,9.6-2c3.7,0.5,6.2,4,6.5,7.6c-0.8,0-2.3,0-3.1,0c-0.5-5.2-7.4-6.2-10.9-3.4  c-0.9,1.3-1.2,3.5,0.2,4.6c3.8,2.6,9.1,2.1,12.5,5.5c2.2,2.3,2,6.2-0.1,8.5c-5.3,4.8-16.8,2.7-17-5.6c2.8-0.8,3.6,1.7,4.8,3.6  c2.8,2.1,7.5,2.4,9.9-0.4c1.4-1.5,0.6-3.9-1.1-4.8c-3.7-2.1-8.7-1.7-11.7-5C54.7,313.6,55,309.4,57.4,307.3z"></path>	<path class="st0" d="M110,305.9c3.7-1.2,8.3-1.3,11.5,1.3c1.7,1.4,2,3.6,2.7,5.6c-0.8,0-2.3,0.1-3.1,0.1c-0.8-4.9-7.1-6.3-10.7-3.6  c-1.5,1.2-1.6,3.9,0.1,5c3.8,2.5,9.2,2,12.5,5.6c2.6,2.8,1.4,7.7-1.9,9.4c-5.6,3.1-15.2,0.8-15.4-6.7c0.7,0,2.1,0,2.9,0  c1,5.1,7.8,6.5,11.6,3.5c1.3-1.4,1.3-4-0.5-5c-3.6-2.4-8.6-1.9-11.9-5C104.7,313.2,106,307.4,110,305.9z"></path>	<path class="st0" d="M133.8,307.7c2.6-3.1,7.1-2.8,10.7-2.2c3.4,0.8,5.3,4.1,5.6,7.4c-0.8,0-2.3,0-3.1,0c-0.4-5.4-8-6.4-11.3-3  c-0.4,1.4-0.7,3.4,0.8,4.3c3.6,2.4,8.6,2.1,11.9,5c1.3,1.1,1.6,2.9,2.2,4.5c-1.4,9.8-18.7,8.7-18.9-1.1c0.7,0,2.1-0.1,2.8-0.1  c1.1,5.2,8.6,6.9,12,3c1.7-1.5,0.4-4-1.3-4.8c-3.7-1.9-8.4-1.7-11.4-4.8C131.4,313.9,131.6,309.9,133.8,307.7z"></path>	<path class="st0" d="M287.4,309.9c1.2-6.9,14.3-6.2,14.2,1c0.5,3.8-3.2,6-6.1,7.5c1.9,1.8,3.7,3.6,5.5,5.4c0.5-1.9,0.9-3.8,1.2-5.6  c0.7,0,2.2,0,2.9,0c-0.1,2.7-0.8,5.4-2,7.8c1.3,1.3,2.6,2.6,3.9,3.9c-1.4,0-2.8,0-4.2,0c-0.4-0.4-1.2-1.2-1.6-1.5  c-4.5,2.5-11.3,3.5-15-0.9c-2.4-3.9-0.1-8.6,3.7-10.5C288.6,314.9,286.8,312.6,287.4,309.9 M290.4,309.8c-0.6,2.5,1.5,4.3,2.8,6.2  c1.9-1.1,4.8-1.8,5.4-4.1C299.6,307.4,292.2,306.5,290.4,309.8 M292.2,319.1c-2.1,1.5-5.2,3.8-3.3,6.7c2.5,3,7.1,2,10.2,0.4  C296.8,323.8,294.4,321.6,292.2,319.1z"></path>	<path class="st0" d="M331.2,307.1c6.7-4.5,17.2-1.3,19.3,6.8c-0.8,0-2.4,0-3.3,0c-1.3-2.3-3-4.5-5.7-5.2  c-5.5-2.2-12.5,2.1-12.4,8.2c-0.8,4.9,2.9,9.9,7.8,10.5c4.6,0.9,8.6-2.2,10.7-5.9c0.8,0,2.3-0.1,3.1-0.2c-1.9,7.8-11.4,11.6-18.4,8  C324.1,325.2,323.6,312.1,331.2,307.1z"></path>	<path class="st0" d="M491.6,306.6c4.8-2.5,11.6-1.9,15.3,2.3c1.4,1.4,2.2,3.3,3.1,5c-0.8,0-2.5,0-3.3,0.1c-2-4.2-7-7.1-11.6-5.5  c-5.1,1.3-7.9,7.5-6.2,12.3c1.1,5.1,7.2,7.9,12,6.1c3-0.7,4.7-3.2,6.2-5.7c0.8,0,2.2,0.1,3,0.1c-2,7.9-12.2,11.6-19,7.4  C483.2,324.3,483.4,310.6,491.6,306.6z"></path>	<path class="st0" d="M593.4,305.4c3.3-0.5,6.9-0.5,9.8,1.2c7.9,4,8.4,16.8,1.1,21.7c-6.3,4.4-16.9,2.1-19.5-5.6  C582.1,316,585.9,306.9,593.4,305.4 M593.4,308.8c-6.9,2-8.2,12.3-2.8,16.6c5.1,4.4,14.5,1.6,15.5-5.4  C608.2,312.8,600.2,305.7,593.4,308.8z"></path>	<path class="st0" d="M10.1,305.6c0.7,0,2.2,0,2.9,0c3.4,8.1,6.7,16.2,10.1,24.3c-0.8,0-2.5,0-3.3,0c-0.8-1.8-1.6-3.6-2.4-5.4  c-3.9,0-7.9,0-11.8,0c-0.7,1.7-1.4,3.5-2.1,5.2c-1.2,0.1-2.4,0.2-3.5,0.2C3.4,321.9,6.7,313.7,10.1,305.6 M6.8,321.8  c3.2,0,6.4,0,9.6,0c-1.5-3.9-3.2-7.8-4.7-11.8C9.9,313.9,8.3,317.9,6.8,321.8z"></path>	<path class="st0" d="M82.7,305.8c5,0,10,0,15,0c0,0.7,0,2.1,0,2.8c-4,0-7.9,0-11.8,0.1c0,2.6,0,5.2,0.1,7.8c3.6,0,7.2,0,10.7,0  c0,0.6,0.1,1.8,0.1,2.4c-3.6,0-7.2,0-10.8,0c0,2.8,0,5.6,0,8.4c4,0.1,8-0.2,12,0.1c0.5,0.7,0.2,1.8,0.4,2.7c-5.2,0-10.3,0-15.5,0  C82.7,321.9,82.7,313.8,82.7,305.8z"></path>	<path class="st0" d="M159.4,305.8c0.8-0.1,2.2-0.2,3-0.2c3.3,4.8,6.4,9.7,9.6,14.5c3.1-4.8,6.3-9.5,9.3-14.3c0.8,0,2.3-0.1,3.1-0.2  c0.1,8.1,0.1,16.3,0,24.4c-0.8,0-2.4-0.1-3.2-0.1c0-6.1,0.1-12.2-0.1-18.3c-2.6,3.6-4.9,7.4-7.5,11.1c-0.5,1.2-2,0.7-3.1,1  c-2.6-4.1-5.3-8.1-8-12.2c-0.1,6.1-0.1,12.2,0,18.4c-1.1,0-2.2,0-3.3,0C159.4,321.9,159.4,313.9,159.4,305.8z"></path>	<path class="st0" d="M194.8,305.8c5,0,10,0,15,0c0,0.7,0,2.1,0,2.8c-3.9,0-7.8,0-11.7,0c0,2.6,0,5.2,0,7.9c3.6,0,7.1,0,10.7,0  c0,0.6,0,1.8,0,2.4c-3.6,0-7.2,0-10.7,0c0,2.8,0,5.6,0.1,8.4c4,0,8.1,0,12.2,0c0,0.7,0,2.1,0,2.8c-5.2,0-10.3,0-15.5,0  C194.8,321.9,194.8,313.8,194.8,305.8z"></path>	<path class="st0" d="M219.5,305.6c0.8,0,2.3,0,3,0.1c4.4,6.3,8.8,12.7,13.4,18.9c0.1-6.3,0-12.7,0-19c0.7,0,2.2,0,2.9,0  c0,8.1,0,16.2,0,24.3c-0.7,0-2.2,0-2.9,0c-4.6-6.1-8.5-12.7-13.5-18.5c-0.2,6.1-0.1,12.3-0.1,18.5c-0.7,0-2.2,0-2.9,0  C219.5,321.8,219.5,313.7,219.5,305.6z"></path>	<path class="st0" d="M247.2,305.7c6.5,0,13,0,19.4,0c0,1,0,2,0.1,2.9c-2.7,0-5.5,0-8.2,0c-0.1,7.2,0,14.3,0,21.5  c-0.8,0-2.2-0.1-3-0.1c0-7.1,0-14.2,0-21.3c-2.8,0-5.5,0-8.3,0C247.2,307.8,247.2,306.4,247.2,305.7z"></path>	<path class="st0" d="M359.3,305.7c5-0.1,10,0,15.1,0c0,1,0,1.9,0,2.9c-3.9,0-7.8,0-11.8,0c0,2.6,0,5.2,0,7.8c3.6,0,7.2,0,10.7,0  c0,0.6,0.1,1.9,0.1,2.5c-3.6,0-7.2,0-10.8,0c0,2.8,0,5.5,0,8.3c4,0,8,0,12,0c0,0.7,0.1,2.1,0.2,2.8c-5.2,0.1-10.3,0-15.5,0  C359.3,321.9,359.4,313.8,359.3,305.7z"></path>	<path class="st0" d="M383.9,305.6c4.6,0.2,9.3-0.7,13.7,0.8c6.1,2.8,5.2,13.4-1.6,14.7c2.1,2.9,4.1,5.9,6.1,8.9  c-1.3-0.1-2.7-0.1-4-0.2c-1.9-2.8-3.6-5.7-5.7-8.3c-1.8-0.6-3.6-0.2-5.5-0.4c0,2.9,0,5.9,0,8.8c-0.8-0.1-2.3-0.1-3.1-0.2  C383.9,321.8,383.9,313.7,383.9,305.6 M387,308.6c0,3.2,0,6.5,0,9.8c3.5-0.2,7.8,1.1,10.5-1.8c2.5-2.4,0.9-7.1-2.4-7.8  C392.3,308.4,389.6,308.6,387,308.6z"></path>	<path class="st0" d="M408.8,305.7c6.5,0,13,0,19.5,0c0,0.9,0,1.9,0,2.9c-2.8,0-5.5,0-8.2,0.1c0,7.1,0,14.3,0,21.4c-0.8,0-2.3,0-3,0  c0-7.1,0-14.3,0-21.4c-2.8,0-5.5,0-8.2,0C408.8,307.8,408.8,306.4,408.8,305.7z"></path>	<path class="st0" d="M436.7,305.7c0.7,0,2.2,0,2.9,0c0,8.1,0,16.1,0,24.2c-0.7,0-2.2,0-2.9,0C436.7,321.9,436.7,313.8,436.7,305.7z  "></path>	<path class="st0" d="M450.1,305.7c4.7-0.1,9.4,0,14.1,0c0,0.7-0.1,2.2-0.2,2.9c-3.5,0-7.1,0-10.6,0c0,2.8,0,5.5,0,8.3  c3.4,0,6.8,0,10.2,0.1c0,0.7,0,2.2,0,2.9c-3.4,0-6.8,0-10.1,0c0,3.4,0,6.8,0,10.2c-0.8,0-2.5,0-3.3,0  C450.1,321.9,450.2,313.8,450.1,305.7z"></path>	<path class="st0" d="M473.3,330c0.1-8.1-0.2-16.2,0.1-24.2c0.7,0,2.2-0.1,2.9-0.2c0,8.2,0,16.3,0,24.5C475.5,330,474,330,473.3,330  z"></path>	<path class="st0" d="M516,329.9c3.3-8.1,6.7-16.2,10-24.3c0.7,0,2.2-0.1,2.9-0.1c3.5,8.1,6.7,16.3,10.2,24.4  c-1.2-0.1-2.4-0.1-3.5-0.2c-0.7-1.8-1.4-3.5-2.1-5.2c-4,0-8.1,0-12.1,0.1c-0.7,1.8-1.4,3.6-2.1,5.3  C518.4,330,516.8,329.9,516,329.9 M527.3,310.1c-1.5,3.9-3.2,7.8-4.6,11.7c3.2,0,6.4,0,9.6,0C530.6,317.9,529.2,313.9,527.3,310.1z  "></path>	<path class="st0" d="M544.2,305.7c6.5,0,13,0,19.5,0c0,0.7,0,2.1,0,2.8c-2.7,0-5.5,0-8.2,0c0,7.1,0,14.3,0,21.4c-0.7,0-2.2,0-3,0  c0-7.1,0-14.3,0-21.4c-2.8,0-5.5,0-8.2,0C544.2,307.8,544.2,306.4,544.2,305.7z"></path>	<path class="st0" d="M571.9,305.6c0.8,0,2.5,0,3.3,0.1c0,8.1,0,16.2,0,24.3c-0.8,0-2.5,0-3.3,0  C571.9,321.9,571.9,313.7,571.9,305.6z"></path>	<path class="st0" d="M618.5,305.5c0.8,0.1,2.3,0.4,3,0.5c4.7,6,8.8,12.6,13.4,18.7c0-6.3,0-12.7,0-19c0.7,0,2.2,0,2.9,0  c0,8.1,0,16.2,0,24.3c-0.7,0-2.2,0-2.9,0c-4.5-6.2-8.8-12.6-13.4-18.8c-0.4,6.2-0.1,12.5-0.2,18.7c-0.7,0-2.2,0-2.9,0  C618.5,321.8,618.5,313.6,618.5,305.5z"></path></g></svg>